<?xml version="1.0" standalone="no"?>
<!DOCTYPE svg PUBLIC "-//W3C//DTD SVG 20010904//EN"
 "http://www.w3.org/TR/2001/REC-SVG-20010904/DTD/svg10.dtd">
<svg version="1.0" xmlns="http://www.w3.org/2000/svg"
 width="500.000000pt" height="500.000000pt" viewBox="0 0 500.000000 500.000000"
 preserveAspectRatio="xMidYMid meet">
<metadata>
Created by potrace 1.14, written by Peter Selinger 2001-2017
</metadata>
<g transform="translate(0.000000,500.000000) scale(0.100000,-0.100000)"
fill="#000000" stroke="none">
<path d="M2470 3610 c-12 -7 -15 -37 -17 -150 -2 -129 -1 -142 18 -161 21 -21
55 -19 74 6 7 8 10 68 9 151 -2 120 -4 140 -20 151 -21 15 -43 16 -64 3z"/>
<path d="M2110 3436 c-113 -49 -190 -96 -229 -138 -8 -10 -20 -18 -26 -18 -8
0 -109 -102 -148 -150 -103 -128 -149 -234 -205 -469 -10 -44 -9 -264 2 -331
5 -34 10 -53 29 -122 6 -19 17 -49 32 -83 38 -86 69 -151 74 -155 3 -3 20 -25
36 -49 50 -75 121 -151 184 -201 33 -26 55 -43 88 -70 10 -9 23 -17 28 -20 6
-2 54 -25 109 -51 73 -35 106 -46 130 -42 38 6 38 6 42 42 3 26 -1 31 -31 42
-19 7 -35 17 -35 21 0 4 -3 7 -7 6 -13 -4 -123 44 -123 53 0 5 -4 9 -9 9 -10
0 -94 54 -118 75 -37 33 -113 107 -113 110 0 2 -18 23 -40 46 -22 23 -38 45
-35 47 3 3 -1 12 -9 21 -24 28 -94 174 -109 231 -28 97 -30 113 -32 241 -3
115 2 155 30 273 15 65 68 174 130 271 42 65 185 208 230 229 19 9 37 21 40
27 6 9 111 62 182 90 17 7 29 17 27 21 -3 4 -1 8 4 8 17 0 1 40 -21 55 -27 19
-19 20 -107 -19z"/>
<path d="M2785 3456 c-23 -16 -26 -52 -7 -69 9 -7 43 -24 75 -37 31 -12 60
-26 63 -31 3 -5 13 -9 22 -9 10 0 24 -9 32 -20 8 -11 22 -20 32 -20 10 0 18
-3 18 -7 0 -5 17 -19 38 -33 39 -26 112 -98 167 -165 45 -54 129 -217 150
-290 9 -33 19 -67 22 -75 11 -30 14 -67 15 -175 2 -142 -7 -212 -35 -292 -9
-22 -13 -44 -10 -47 4 -3 1 -6 -6 -6 -7 0 -10 -4 -7 -8 5 -9 -79 -169 -114
-215 -54 -71 -174 -184 -232 -218 -38 -22 -68 -43 -68 -48 0 -4 -6 -8 -12 -8
-7 0 -43 -14 -81 -32 -37 -17 -72 -31 -77 -31 -18 0 -22 -41 -5 -66 14 -21 21
-24 48 -19 43 9 181 73 237 110 41 27 161 124 185 149 75 80 147 192 197 306
38 89 52 132 64 205 1 6 3 12 4 15 14 36 18 219 7 312 -12 106 -51 230 -108
341 -10 20 -17 37 -15 37 3 0 -4 10 -14 23 -11 12 -43 54 -71 92 -52 71 -60
78 -158 163 -69 59 -77 65 -142 99 -30 16 -61 33 -69 38 -8 5 -19 10 -25 11
-5 1 -23 8 -40 14 -41 17 -63 19 -80 6z"/>
<path d="M2170 3185 c-14 -17 -19 -207 -7 -257 12 -47 77 -46 92 2 10 32 8
241 -3 252 -18 18 -68 20 -82 3z"/>
<path d="M2766 3187 c-16 -12 -18 -28 -18 -128 0 -147 1 -154 9 -146 3 4 12
-1 19 -11 12 -16 15 -16 41 -2 l28 16 1 126 c1 69 -1 130 -5 136 -11 18 -55
24 -75 9z"/>
<path d="M2449 3148 c-42 -46 -60 -94 -60 -158 0 -94 57 -180 120 -180 12 0
37 17 56 37 77 81 72 209 -11 302 -36 40 -67 40 -105 -1z"/>
<path d="M2173 2779 c-27 -10 -37 -44 -30 -103 8 -59 29 -99 69 -127 18 -13
36 -27 39 -32 4 -5 18 -10 33 -10 14 -1 26 -5 26 -9 0 -9 107 -5 115 4 11 11
13 78 3 122 -21 100 -167 188 -255 155z"/>
<path d="M2765 2783 c-71 -9 -155 -68 -179 -128 -19 -46 -20 -132 -2 -151 28
-27 196 3 196 35 0 4 11 13 24 20 34 18 60 84 60 147 0 74 -16 86 -99 77z"/>
<path d="M2169 2437 c-21 -16 -24 -103 -5 -148 16 -39 90 -122 100 -112 3 3 6
1 6 -5 0 -6 8 -11 18 -11 9 0 42 -3 72 -7 44 -5 59 -3 69 10 15 17 17 62 7
114 -4 19 -8 39 -9 45 -3 15 -73 87 -85 87 -6 0 -12 4 -14 9 -7 21 -136 35
-159 18z"/>
<path d="M2728 2444 c-4 -3 -13 -7 -22 -8 -8 -1 -37 -20 -64 -42 -55 -44 -74
-82 -77 -161 -3 -71 15 -87 87 -80 29 3 64 9 78 15 24 9 109 93 111 109 0 5 3
22 6 38 5 30 7 65 4 97 -2 24 -53 41 -82 27 -9 -5 -20 -4 -26 2 -5 5 -12 7
-15 3z"/>
<path d="M1944 2232 c-6 -4 -15 -16 -21 -26 -12 -23 -11 -25 66 -101 48 -48
55 -53 77 -43 13 6 25 14 25 17 9 40 2 54 -53 105 -59 55 -73 63 -94 48z"/>
<path d="M3015 2227 c-35 -21 -104 -90 -99 -99 3 -4 1 -8 -4 -8 -18 0 0 -39
24 -55 24 -16 26 -15 89 46 59 56 82 99 54 99 -5 0 -7 5 -4 10 3 6 2 10 -4 10
-5 0 -15 2 -23 5 -7 2 -22 -1 -33 -8z"/>
<path d="M2464 2112 c-7 -11 -11 -81 -10 -195 1 -181 -4 -232 -20 -192 -4 11
-10 22 -13 25 -4 3 -19 23 -36 45 -27 37 -120 133 -158 163 -22 17 -33 15 -56
-9 -16 -17 -17 -26 -10 -49 6 -15 20 -33 32 -39 12 -7 40 -35 62 -63 22 -27
45 -55 51 -61 29 -33 101 -151 131 -216 18 -41 38 -80 44 -87 17 -21 48 -3 67
40 20 43 50 105 67 137 5 10 13 19 17 19 5 0 8 7 8 15 0 8 4 15 9 15 5 0 14
14 21 30 7 17 18 34 24 38 6 4 23 23 37 42 15 19 50 58 79 87 l52 52 -18 30
c-10 17 -22 31 -27 31 -17 0 -72 -34 -89 -55 -10 -12 -32 -38 -50 -56 -19 -19
-55 -63 -82 -99 -27 -37 -46 -55 -43 -43 3 13 1 26 -4 29 -5 3 -6 10 -3 16 13
21 7 337 -6 353 -17 21 -63 19 -76 -3z"/>
</g>
</svg>
